<svg xmlns="http://www.w3.org/2000/svg" xmlns:xlink="http://www.w3.org/1999/xlink" width="1080" zoomAndPan="magnify"
    viewBox="0 0 810 809.999993" height="1080" preserveAspectRatio="xMidYMid meet" version="1.0">
    <defs>
        <g />

        <clipPath id="0c73005fa8">
            <path
                d="M 0.210938 92.621094 C 24.4375 93.746094 32.085938 94.417969 40.1875 95.695312 C 49.410156 97.121094 60.4375 99.519531 69.8125 101.695312 C 78.4375 103.71875 86.3125 105.292969 94.335938 108.144531 C 102.585938 111.070312 111.285156 115.042969 118.5625 119.019531 C 124.9375 122.542969 130.785156 126.292969 135.8125 130.417969 C 140.3125 134.09375 143.835938 137.46875 147.660156 142.269531 C 152.386719 148.195312 158.160156 158.019531 161.386719 164.019531 C 163.488281 167.996094 164.6875 170.695312 166.035156 174.21875 C 167.460938 177.820312 168.585938 181.71875 169.710938 185.46875 C 170.761719 189.21875 171.8125 192.292969 172.5625 196.71875 C 173.6875 203.019531 174.660156 214.417969 174.8125 219.746094 C 174.886719 222.519531 174.886719 223.71875 174.585938 226.195312 C 174.210938 229.496094 173.160156 234.21875 172.113281 237.820312 C 171.210938 241.121094 170.238281 244.042969 168.8125 247.042969 C 167.3125 250.195312 165.511719 252.96875 163.1875 256.195312 C 160.261719 260.246094 156.210938 265.121094 152.386719 269.09375 C 148.636719 272.917969 144.4375 276.894531 140.386719 279.667969 C 136.9375 282.070312 133.488281 283.71875 129.960938 285.144531 C 126.585938 286.496094 123.886719 287.695312 119.761719 288.292969 C 113.6875 289.195312 103.113281 288.519531 96.660156 287.917969 C 92.011719 287.46875 89.011719 287.09375 84.738281 285.96875 C 79.410156 284.621094 72.511719 282.371094 67.1875 279.894531 C 62.386719 277.644531 57.210938 274.34375 53.988281 272.09375 C 52.035156 270.746094 50.910156 269.621094 49.410156 268.417969 C 47.988281 267.21875 46.785156 266.394531 45.285156 264.820312 C 43.113281 262.496094 39.960938 257.996094 38.085938 255.371094 C 36.8125 253.570312 36.136719 252.667969 35.085938 250.792969 C 33.511719 247.945312 31.636719 243.96875 30.210938 239.84375 C 28.488281 234.894531 26.160156 228.144531 25.863281 222.894531 C 25.5625 218.46875 26.6875 213.894531 27.511719 210.445312 C 28.113281 207.894531 28.710938 206.394531 29.761719 203.996094 C 31.1875 200.84375 33.4375 196.644531 35.761719 193.269531 C 38.085938 189.96875 40.488281 186.894531 43.636719 183.96875 C 47.238281 180.59375 52.113281 177.445312 56.613281 174.667969 C 61.1875 171.894531 64.5625 169.945312 70.863281 167.320312 C 82.035156 162.667969 107.386719 154.71875 119.160156 151.570312 C 125.761719 149.769531 129.511719 148.945312 134.910156 148.269531 C 140.535156 147.59375 146.535156 147.371094 152.386719 147.667969 C 158.3125 147.96875 163.636719 148.945312 170.238281 150.070312 C 178.410156 151.496094 187.335938 152.996094 197.761719 155.917969 C 212.011719 159.96875 235.5625 168.667969 247.410156 173.621094 C 254.3125 176.46875 257.835938 177.96875 263.3125 181.195312 C 269.761719 185.019531 277.410156 190.195312 283.335938 195.445312 C 289.035156 200.46875 293.761719 206.246094 298.335938 212.019531 C 302.910156 217.71875 306.886719 223.570312 310.785156 230.019531 C 314.910156 236.84375 318.363281 242.996094 322.261719 251.84375 C 327.8125 264.519531 334.710938 286.121094 339.136719 299.695312 C 342.363281 309.59375 343.9375 315.371094 346.785156 325.496094 C 350.835938 340.042969 356.160156 372.070312 360.738281 378.59375 C 362.085938 380.542969 364.863281 380.46875 364.863281 381.445312 C 364.863281 382.417969 360.960938 384.894531 360.511719 384.519531 C 359.988281 384.144531 361.636719 379.417969 362.6875 377.996094 C 363.4375 377.019531 364.261719 376.269531 365.3125 376.042969 C 366.585938 375.746094 368.988281 376.195312 370.113281 376.945312 C 371.011719 377.542969 371.761719 378.59375 371.910156 379.71875 C 372.136719 380.996094 371.761719 383.320312 370.785156 384.371094 C 369.8125 385.417969 367.5625 386.167969 366.210938 386.09375 C 365.085938 386.019531 364.035156 385.496094 363.285156 384.667969 C 362.386719 383.695312 361.636719 381.445312 361.785156 380.09375 C 361.863281 378.96875 362.6875 377.917969 363.4375 377.167969 C 364.1875 376.496094 365.3125 375.820312 366.4375 375.820312 C 367.785156 375.820312 369.960938 376.570312 370.863281 377.695312 C 371.761719 378.820312 372.0625 380.769531 371.835938 382.417969 C 371.535156 384.519531 370.335938 387.820312 368.535156 389.09375 C 366.738281 390.371094 363.210938 390.21875 361.113281 389.84375 C 359.386719 389.542969 358.035156 388.71875 356.6875 387.820312 C 355.1875 386.84375 353.761719 386.019531 352.5625 384.144531 C 350.535156 380.996094 349.710938 375.59375 347.910156 369.070312 C 344.613281 357.144531 338.761719 330.292969 335.460938 318.292969 C 333.660156 311.621094 332.988281 309.371094 330.8125 302.84375 C 327.0625 291.371094 319.5625 268.042969 314.011719 255.59375 C 310.1875 247.042969 306.585938 241.121094 302.613281 234.59375 C 299.011719 228.667969 295.410156 223.34375 291.285156 218.019531 C 287.011719 212.542969 282.585938 207.070312 277.335938 202.34375 C 271.9375 197.394531 265.488281 192.820312 259.1875 189.070312 C 253.113281 185.46875 248.011719 183.371094 240.285156 180.292969 C 228.660156 175.644531 209.535156 168.894531 195.585938 165.144531 C 183.8125 161.996094 170.761719 159.667969 162.285156 158.46875 C 157.113281 157.71875 154.113281 157.417969 149.6875 157.34375 C 144.8125 157.269531 139.035156 157.792969 134.386719 158.394531 C 130.488281 158.917969 128.3125 159.292969 123.8125 160.417969 C 115.785156 162.445312 100.035156 167.542969 90.738281 170.769531 C 83.761719 173.167969 78.660156 174.820312 72.738281 177.667969 C 66.585938 180.667969 58.710938 185.394531 54.585938 188.320312 C 52.261719 189.96875 51.136719 191.09375 49.5625 192.59375 C 48.0625 194.09375 46.785156 195.519531 45.363281 197.46875 C 43.5625 199.945312 41.386719 203.246094 39.960938 206.320312 C 38.613281 209.320312 37.636719 212.84375 37.035156 215.542969 C 36.585938 217.496094 36.210938 218.769531 36.210938 220.792969 C 36.210938 223.496094 36.8125 226.792969 37.710938 230.167969 C 38.835938 234.371094 40.863281 239.769531 42.886719 243.894531 C 44.6875 247.570312 46.636719 250.71875 49.035156 253.71875 C 51.363281 256.71875 54.136719 259.496094 57.0625 261.894531 C 59.910156 264.292969 63.136719 266.320312 66.363281 268.195312 C 69.585938 269.996094 72.960938 271.570312 76.410156 272.917969 C 79.863281 274.269531 83.3125 275.394531 86.910156 276.21875 C 90.511719 277.042969 94.035156 277.570312 97.9375 277.945312 C 102.210938 278.394531 107.238281 278.621094 111.4375 278.46875 C 115.113281 278.320312 118.1875 278.394531 121.863281 277.34375 C 126.363281 275.996094 132.136719 272.996094 136.113281 270.21875 C 139.488281 267.894531 141.8125 265.417969 144.660156 262.417969 C 147.960938 258.894531 152.011719 254.167969 154.710938 250.269531 C 156.960938 246.96875 158.6875 243.96875 160.113281 240.667969 C 161.460938 237.445312 162.511719 234.21875 163.1875 230.769531 C 163.9375 227.246094 164.3125 223.496094 164.386719 219.894531 C 164.460938 216.445312 163.9375 213.144531 163.5625 209.621094 C 163.1875 205.792969 162.8125 201.445312 162.0625 197.621094 C 161.386719 193.945312 160.636719 191.019531 159.285156 187.042969 C 157.488281 181.71875 154.636719 174.445312 151.710938 168.59375 C 148.863281 162.820312 145.636719 156.96875 142.035156 152.09375 C 138.738281 147.59375 135.660156 143.996094 131.3125 140.246094 C 126.210938 135.820312 119.761719 131.394531 112.9375 127.644531 C 105.4375 123.519531 95.988281 119.46875 87.960938 116.769531 C 80.988281 114.445312 75.285156 113.46875 67.785156 111.820312 C 58.5625 109.71875 47.761719 107.167969 36.738281 105.445312 C 24.4375 103.570312 2.160156 103.792969 -2.789062 101.320312 C -4.214844 100.644531 -4.664062 99.894531 -5.039062 98.917969 C -5.414062 97.945312 -5.488281 96.59375 -5.113281 95.621094 C -4.738281 94.644531 -3.914062 93.667969 -3.011719 93.144531 C -2.113281 92.621094 0.210938 92.621094 0.210938 92.621094 "
                fill="red" />
        </clipPath>
        <clipPath id="ac8c59495f">
            <path d="M 491 317 L 810 317 L 810 417 L 491 417 Z M 491 317 " clip-rule="nonzero" />
        </clipPath>
        <clipPath id="d7dcd81627">
            <path
                d="M 476.410156 378.5 L 862.542969 190.367188 L 939.148438 347.601562 L 553.015625 535.734375 Z M 476.410156 378.5 "
                clip-rule="nonzero" />
        </clipPath>
        <clipPath id="20e25ff739">
            <path
                d="M 491.972656 404.792969 C 498.660156 390.4375 500.332031 387.871094 502.582031 384.273438 C 505.75 379.308594 510.796875 371.507812 514.367188 366.851562 C 516.914062 363.523438 518.28125 361.1875 521.527344 358.605469 C 526.027344 354.996094 533.582031 350.8125 540.046875 348.496094 C 546.445312 346.214844 552.964844 345.042969 560.175781 344.78125 C 568.398438 344.53125 578.855469 345.273438 586.8125 347.738281 C 594.003906 349.992188 599.621094 355.011719 606.027344 358.066406 C 612.238281 361.046875 617.453125 362.507812 624.796875 365.9375 C 635.746094 371.117188 652.144531 381.3125 665.035156 387.046875 C 676.320312 392.0625 686.976562 396.128906 697.648438 399.191406 C 707.546875 402.042969 717.761719 403.65625 726.933594 405.195312 C 735.039062 406.585938 742.675781 407.703125 749.949219 408.246094 C 756.449219 408.75 762.320312 408.8125 768.496094 408.472656 C 774.738281 408.097656 781.355469 407.128906 787.167969 406.046875 C 792.378906 405.09375 797.1875 404.003906 801.898438 402.542969 C 806.339844 401.210938 810.144531 399.777344 814.625 397.675781 C 820.152344 395.148438 825.054688 391.507812 832.335938 387.960938 C 843.257812 382.640625 863.125 375.296875 874.582031 370.046875 C 882.570312 366.40625 889.375 363.59375 894.710938 360.160156 C 898.726562 357.617188 901.871094 355.167969 904.484375 352.308594 C 906.824219 349.75 908.226562 347.316406 909.902344 344.078125 C 912.058594 339.941406 914.378906 332.890625 915.65625 329.179688 C 916.417969 326.972656 917.207031 325.335938 917.289062 323.796875 C 917.332031 322.6875 916.539062 321.742188 916.613281 320.871094 C 916.691406 320 917.136719 319.03125 917.746094 318.398438 C 918.289062 317.800781 919.234375 317.339844 920.074219 317.183594 C 920.914062 317.023438 921.984375 317.167969 922.753906 317.546875 C 923.519531 317.921875 924.285156 318.632812 924.613281 319.476562 C 925.003906 320.453125 924.984375 322.464844 924.371094 323.433594 C 923.753906 324.398438 922.101562 325.285156 921.027344 325.476562 C 920.15625 325.570312 919.148438 325.390625 918.453125 324.8125 C 917.621094 324.132812 916.699219 322.414062 916.574219 321.304688 C 916.484375 320.433594 916.828125 319.429688 917.441406 318.800781 C 918.21875 318 919.972656 317.148438 921.046875 317.125 C 921.953125 317.101562 922.921875 317.546875 923.519531 318.089844 C 924.117188 318.632812 924.546875 319.339844 924.871094 320.351562 C 925.324219 321.796875 925.574219 323.847656 925.144531 326.390625 C 924.253906 331.414062 919.578125 342.367188 916.46875 347.972656 C 914.179688 352.007812 911.632812 355.167969 909.359375 357.691406 C 907.597656 359.554688 906.480469 360.515625 904.25 362.101562 C 900.601562 364.714844 895.738281 367.582031 888.996094 371.035156 C 876.789062 377.316406 848.972656 388.199219 835.890625 394.574219 C 828.070312 398.382812 823.203125 401.921875 817.441406 404.480469 C 812.589844 406.675781 808.414062 408.042969 803.671875 409.4375 C 798.691406 410.863281 793.714844 411.949219 788.273438 412.933594 C 782.15625 414.078125 775.234375 415.113281 768.722656 415.617188 C 762.277344 416.089844 756.542969 416.128906 749.265625 415.753906 C 739.914062 415.222656 727.054688 413.3125 717.40625 411.835938 C 709.304688 410.613281 702.535156 409.738281 695.007812 407.816406 C 687.011719 405.789062 677.554688 402.304688 670.605469 399.683594 C 665.328125 397.75 662.386719 396.511719 656.878906 393.941406 C 647.898438 389.722656 632.628906 380.980469 622.246094 376.109375 C 614.03125 372.269531 606.710938 370.078125 599.835938 366.753906 C 593.691406 363.742188 589.3125 359.199219 582.789062 357.289062 C 575.367188 355.066406 564.734375 354.992188 557.417969 355.550781 C 551.710938 355.996094 547.371094 357.195312 542.488281 358.988281 C 537.402344 360.882812 532.523438 362.675781 527.714844 366.851562 C 520.8125 372.886719 512.6875 386.691406 507.671875 394.722656 C 504.09375 400.386719 501.875 407.476562 499.535156 409.867188 C 498.519531 410.863281 497.640625 411.289062 496.632812 411.449219 C 495.625 411.605469 494.386719 411.289062 493.519531 410.710938 C 492.65625 410.132812 491.863281 409.015625 491.636719 408.042969 C 491.414062 407.066406 491.972656 404.792969 491.972656 404.792969 "
                clip-rule="nonzero" />
        </clipPath>
    </defs>

    <g fill="red" fill-opacity="1">
        <g transform="translate(342.739469, 433.453856)">
            <g>
                <path
                    d="M 63.578125 -14.015625 C 61.453125 -14.015625 59.582031 -14.1875 57.96875 -14.53125 C 56.695312 -11.976562 55.171875 -9.617188 53.390625 -7.453125 C 51.609375 -5.285156 49.546875 -3.394531 47.203125 -1.78125 C 44.867188 -0.164062 42.257812 1.101562 39.375 2.03125 C 36.488281 2.96875 33.34375 3.4375 29.9375 3.4375 C 25.945312 3.4375 22.296875 2.734375 18.984375 1.328125 C 15.671875 -0.0664062 12.78125 -2.015625 10.3125 -4.515625 C 7.851562 -7.023438 5.941406 -10.039062 4.578125 -13.5625 C 3.222656 -17.09375 2.546875 -20.984375 2.546875 -25.234375 C 2.546875 -30.671875 3.519531 -35.40625 5.46875 -39.4375 C 7.425781 -43.46875 9.679688 -46.820312 12.234375 -49.5 C 14.785156 -52.175781 17.332031 -54.171875 19.875 -55.484375 C 22.425781 -56.804688 24.335938 -57.46875 25.609375 -57.46875 C 27.054688 -57.46875 28.140625 -57.082031 28.859375 -56.3125 C 29.578125 -55.550781 29.9375 -54.535156 29.9375 -53.265625 C 29.9375 -51.816406 29.488281 -50.726562 28.59375 -50 C 27.707031 -49.28125 26.585938 -48.582031 25.234375 -47.90625 C 23.867188 -47.226562 22.421875 -46.269531 20.890625 -45.03125 C 19.367188 -43.800781 17.945312 -42.253906 16.625 -40.390625 C 15.3125 -38.523438 14.226562 -36.316406 13.375 -33.765625 C 12.53125 -31.210938 12.109375 -28.367188 12.109375 -25.234375 C 12.109375 -22.429688 12.53125 -19.816406 13.375 -17.390625 C 14.226562 -14.972656 15.460938 -12.890625 17.078125 -11.140625 C 18.691406 -9.398438 20.601562 -8.039062 22.8125 -7.0625 C 25.019531 -6.09375 27.484375 -5.609375 30.203125 -5.609375 C 35.046875 -5.609375 39.054688 -6.734375 42.234375 -8.984375 C 45.421875 -11.234375 47.863281 -14.097656 49.5625 -17.578125 C 44.550781 -20.210938 40.429688 -23.953125 37.203125 -28.796875 C 33.972656 -33.640625 32.359375 -39.078125 32.359375 -45.109375 C 32.359375 -49.953125 33.523438 -53.898438 35.859375 -56.953125 C 38.203125 -60.015625 41.285156 -61.546875 45.109375 -61.546875 C 47.398438 -61.546875 49.5625 -60.992188 51.59375 -59.890625 C 53.632812 -58.785156 55.441406 -57.039062 57.015625 -54.65625 C 58.585938 -52.28125 59.84375 -49.222656 60.78125 -45.484375 C 61.71875 -41.742188 62.1875 -37.285156 62.1875 -32.109375 C 62.1875 -29.390625 61.84375 -26.546875 61.15625 -23.578125 C 61.664062 -23.484375 62.175781 -23.4375 62.6875 -23.4375 C 63.195312 -23.4375 63.75 -23.4375 64.34375 -23.4375 C 67.226562 -23.4375 69.816406 -23.773438 72.109375 -24.453125 C 74.410156 -25.140625 76.492188 -26.160156 78.359375 -27.515625 C 80.234375 -28.878906 81.910156 -30.625 83.390625 -32.75 C 84.878906 -34.875 86.300781 -37.335938 87.65625 -40.140625 C 87.914062 -40.648438 88.46875 -41.132812 89.3125 -41.59375 C 90.164062 -42.0625 91.019531 -42.296875 91.875 -42.296875 C 92.976562 -42.296875 94.015625 -41.847656 94.984375 -40.953125 C 95.960938 -40.066406 96.453125 -38.90625 96.453125 -37.46875 C 96.453125 -36.78125 96.28125 -36.03125 95.9375 -35.21875 C 95.601562 -34.414062 95.265625 -33.675781 94.921875 -33 C 93.484375 -30.445312 91.804688 -28.003906 89.890625 -25.671875 C 87.984375 -23.335938 85.734375 -21.300781 83.140625 -19.5625 C 80.546875 -17.820312 77.632812 -16.441406 74.40625 -15.421875 C 71.1875 -14.398438 67.578125 -13.929688 63.578125 -14.015625 Z M 41.796875 -46.125 C 41.796875 -44.507812 42.003906 -42.8125 42.421875 -41.03125 C 42.847656 -39.25 43.507812 -37.484375 44.40625 -35.734375 C 45.300781 -33.992188 46.40625 -32.335938 47.71875 -30.765625 C 49.03125 -29.203125 50.582031 -27.867188 52.375 -26.765625 C 52.625 -28.546875 52.75 -30.285156 52.75 -31.984375 C 52.75 -34.273438 52.578125 -36.609375 52.234375 -38.984375 C 51.898438 -41.367188 51.414062 -43.554688 50.78125 -45.546875 C 50.144531 -47.546875 49.359375 -49.160156 48.421875 -50.390625 C 47.484375 -51.617188 46.378906 -52.234375 45.109375 -52.234375 C 44.597656 -52.234375 43.914062 -51.851562 43.0625 -51.09375 C 42.21875 -50.332031 41.796875 -48.675781 41.796875 -46.125 Z M 41.796875 -46.125 " />
            </g>
        </g>
    </g>
    <g fill="red" fill-opacity="1">
        <g transform="translate(425.177461, 433.453856)">
            <g>
                <path
                    d="M 18.984375 -47.140625 C 18.472656 -45.785156 17.859375 -44.257812 17.140625 -42.5625 C 16.421875 -40.863281 15.59375 -39.078125 14.65625 -37.203125 C 13.882812 -35.765625 13.09375 -34.640625 12.28125 -33.828125 C 11.476562 -33.023438 10.441406 -32.625 9.171875 -32.625 C 7.734375 -32.625 6.585938 -33.066406 5.734375 -33.953125 C 4.878906 -34.847656 4.453125 -35.890625 4.453125 -37.078125 C 4.453125 -37.503906 4.492188 -37.863281 4.578125 -38.15625 C 4.671875 -38.457031 4.882812 -38.945312 5.21875 -39.625 C 7.425781 -43.875 9.0625 -47.585938 10.125 -50.765625 C 11.1875 -53.953125 12.054688 -57.289062 12.734375 -60.78125 C 12.140625 -62.726562 11.710938 -64.378906 11.453125 -65.734375 C 11.203125 -67.097656 11.078125 -68.503906 11.078125 -69.953125 C 11.078125 -72.753906 11.671875 -75.023438 12.859375 -76.765625 C 14.054688 -78.503906 15.71875 -79.375 17.84375 -79.375 C 19.789062 -79.375 21.335938 -78.523438 22.484375 -76.828125 C 23.628906 -75.128906 24.203125 -73.050781 24.203125 -70.59375 C 24.203125 -69.226562 24.070312 -67.863281 23.8125 -66.5 C 23.5625 -65.144531 23.226562 -63.453125 22.8125 -61.421875 C 24.757812 -56.578125 26.707031 -52.285156 28.65625 -48.546875 C 30.613281 -44.804688 32.359375 -41.382812 33.890625 -38.28125 C 35.421875 -35.1875 36.675781 -32.28125 37.65625 -29.5625 C 38.632812 -26.84375 39.125 -24.125 39.125 -21.40625 C 39.125 -17.84375 38.398438 -14.445312 36.953125 -11.21875 C 35.503906 -7.988281 33.125 -5.269531 29.8125 -3.0625 C 30.238281 -2.976562 30.664062 -2.9375 31.09375 -2.9375 C 31.519531 -2.9375 31.941406 -2.9375 32.359375 -2.9375 C 37.203125 -2.9375 41.660156 -4.039062 45.734375 -6.25 C 49.816406 -8.457031 53.492188 -11.320312 56.765625 -14.84375 C 60.035156 -18.363281 62.941406 -22.269531 65.484375 -26.5625 C 68.035156 -30.851562 70.25 -35.125 72.125 -39.375 C 72.96875 -41.320312 74.15625 -42.296875 75.6875 -42.296875 C 77.132812 -42.296875 78.257812 -41.785156 79.0625 -40.765625 C 79.875 -39.753906 80.28125 -38.65625 80.28125 -37.46875 C 80.28125 -36.78125 80.148438 -36.140625 79.890625 -35.546875 C 78.953125 -33.253906 77.738281 -30.640625 76.25 -27.703125 C 74.769531 -24.773438 72.988281 -21.757812 70.90625 -18.65625 C 68.820312 -15.5625 66.421875 -12.523438 63.703125 -9.546875 C 60.984375 -6.578125 57.945312 -3.925781 54.59375 -1.59375 C 51.238281 0.738281 47.566406 2.601562 43.578125 4 C 39.585938 5.40625 35.210938 6.109375 30.453125 6.109375 C 24.765625 6.109375 19.476562 5.109375 14.59375 3.109375 C 9.707031 1.117188 5.734375 -2.164062 2.671875 -6.75 C 2.160156 -7.519531 1.90625 -8.328125 1.90625 -9.171875 C 1.90625 -10.441406 2.394531 -11.566406 3.375 -12.546875 C 4.351562 -13.523438 5.476562 -14.015625 6.75 -14.015625 C 8.113281 -14.015625 9.257812 -13.546875 10.1875 -12.609375 C 10.28125 -12.441406 10.578125 -12.164062 11.078125 -11.78125 C 11.585938 -11.40625 12.203125 -10.984375 12.921875 -10.515625 C 13.648438 -10.046875 14.503906 -9.640625 15.484375 -9.296875 C 16.460938 -8.960938 17.457031 -8.796875 18.46875 -8.796875 C 20.507812 -8.796875 22.226562 -9.21875 23.625 -10.0625 C 25.03125 -10.914062 26.15625 -11.957031 27 -13.1875 C 27.851562 -14.414062 28.472656 -15.726562 28.859375 -17.125 C 29.242188 -18.53125 29.4375 -19.742188 29.4375 -20.765625 C 29.4375 -22.890625 29.09375 -25.015625 28.40625 -27.140625 C 27.726562 -29.265625 26.859375 -31.390625 25.796875 -33.515625 C 24.734375 -35.640625 23.585938 -37.828125 22.359375 -40.078125 C 21.128906 -42.328125 20.003906 -44.679688 18.984375 -47.140625 Z M 18.984375 -47.140625 " />
            </g>
        </g>
    </g>
    <g clip-path="url(#5042bed893)">
        <g clip-path="url(#0c73005fa8)">
            <path fill="red"
                d="M -8.113281 89.621094 L 374.910156 89.621094 L 374.910156 392.84375 L -8.113281 392.84375 Z M -8.113281 89.621094 "
                fill-opacity="1" fill-rule="nonzero" />
        </g>
    </g>
    <g clip-path="url(#ac8c59495f)">
        <g clip-path="url(#d7dcd81627)">
            <g clip-path="url(#20e25ff739)">
                <path fill="red"
                    d="M 473.46875 377.601562 L 863.644531 187.496094 L 942.089844 348.503906 L 551.914062 538.605469 Z M 473.46875 377.601562 "
                    fill-opacity="1" fill-rule="nonzero" />
            </g>
        </g>
    </g>
</svg>